/* XPM */
static char *be21dd9ae2984dd9ab0cd60d47256c14VGx0nPeFZS1Ga8j9[] = {
/* columns rows colors chars-per-pixel */
"45 59 210 2 ",
"   c None",
".  c #760265",
"X  c #74046C",
"o  c #7B056C",
"O  c #780967",
"+  c #7D0A72",
"@  c #7D0675",
"#  c #890967",
"$  c #830B6B",
"%  c #8C0C6B",
"&  c #930F67",
"*  c #940A6C",
"=  c #9C0C6F",
"-  c #94136A",
";  c #9D156D",
":  c #840672",
">  c #850B75",
",  c #8A0C71",
"<  c #8A087B",
"1  c #950C74",
"2  c #9D0B72",
"3  c #91067D",
"4  c #950A7D",
"5  c #9C0D7D",
"6  c #8B1173",
"7  c #8C117B",
"8  c #941674",
"9  c #921977",
"0  c #90167F",
"q  c #9C117C",
"w  c #9E187A",
"e  c #971A77",
"r  c #A20F6F",
"t  c #A4176C",
"y  c #A5146A",
"u  c #B2106D",
"i  c #A30C74",
"p  c #A90D76",
"a  c #A40C7A",
"s  c #AC0D79",
"d  c #B10F79",
"f  c #A01370",
"g  c #AD1875",
"h  c #A71279",
"j  c #AD127D",
"k  c #A21E7D",
"l  c #B61175",
"z  c #BA1276",
"x  c #B4127A",
"c  c #BB147B",
"v  c #B61B7B",
"b  c #BF197D",
"n  c #9E2170",
"m  c #A32475",
"M  c #A9227E",
"N  c #B1297B",
"B  c #AA317F",
"V  c #C21576",
"C  c #C51B7D",
"Z  c #8B0780",
"A  c #8C0C83",
"S  c #950982",
"D  c #9C0D82",
"F  c #9B0D8C",
"G  c #990386",
"H  c #8B1380",
"J  c #951483",
"K  c #9E1180",
"L  c #9F1983",
"P  c #9C108D",
"I  c #9B188F",
"U  c #951E82",
"Y  c #9C1193",
"T  c #9D1893",
"R  c #A10F83",
"E  c #A20A8B",
"W  c #A7058B",
"Q  c #B4088F",
"!  c #A51184",
"~  c #AA1384",
"^  c #A21D82",
"/  c #A2138A",
"(  c #A51C8D",
")  c #AA1B8F",
"_  c #B61A84",
"`  c #BD1B82",
"'  c #B71988",
"]  c #AE0E94",
"[  c #B10B91",
"{  c #A31696",
"}  c #AE1397",
"|  c #AB1B93",
" . c #A61298",
".. c #AB179C",
"X. c #BB159A",
"o. c #BA1E9C",
"O. c #B31D95",
"+. c #9A2386",
"@. c #A1248B",
"#. c #B2268B",
"$. c #BB2386",
"%. c #BD308D",
"&. c #B53C8E",
"*. c #AC2295",
"=. c #BA2295",
"-. c #B4229A",
";. c #BC249C",
":. c #BF299A",
">. c #B22895",
",. c #B4309D",
"<. c #AC16A2",
"1. c #AC1BA1",
"2. c #B017A5",
"3. c #B31BA3",
"4. c #B217A8",
"5. c #B51BA9",
"6. c #BB1FAA",
"7. c #B81BA2",
"8. c #BB24A1",
"9. c #BC22AA",
"0. c #BC28A9",
"q. c #B522A4",
"w. c #BC36A3",
"e. c #C51D83",
"r. c #C91F82",
"t. c #C01E91",
"y. c #C62185",
"u. c #CA2186",
"i. c #C62189",
"p. c #C92188",
"a. c #C02F8F",
"s. c #C43288",
"d. c #C42195",
"f. c #C42E95",
"g. c #C82F97",
"h. c #C3249A",
"j. c #CA2F9A",
"k. c #C02C9E",
"l. c #C2329F",
"z. c #C73E9A",
"x. c #C93599",
"c. c #D73D9B",
"v. c #C325A5",
"b. c #C529A5",
"n. c #CB2AA5",
"m. c #C425A9",
"M. c #C827AB",
"N. c #C429AC",
"B. c #CC2BAA",
"V. c #C927A5",
"C. c #D12DAB",
"Z. c #CE31A3",
"A. c #C83FA2",
"S. c #C533AC",
"D. c #CD31AD",
"F. c #C338A8",
"G. c #C437A4",
"H. c #D636A5",
"J. c #D433AB",
"K. c #D935AB",
"L. c #D53CA8",
"P. c #DF3AAC",
"I. c #C126B0",
"U. c #C62BB2",
"Y. c #C82CB2",
"T. c #CB33B2",
"R. c #CC3BB2",
"E. c #C533B1",
"W. c #D23BB4",
"Q. c #D33DB8",
"!. c #D133B0",
"~. c #E63EAC",
"^. c #E53CA5",
"/. c #BD4394",
"(. c #CA439E",
"). c #C943A1",
"_. c #CA4DA3",
"`. c #D24CA4",
"'. c #D540B8",
"]. c #DF49BE",
"[. c #DB44BB",
"{. c #D754B1",
"}. c #DE5DB8",
"|. c #DC51B6",
" X c #E040A1",
".X c #E740AB",
"XX c #EB43AB",
"oX c #F146AC",
"OX c #F549AE",
"+X c #E54EB7",
"@X c #E048BE",
"#X c #E644B3",
"$X c #F94BB0",
"%X c #E158BD",
"&X c #E653B9",
"*X c #F057B9",
"=X c #E44DC2",
"-X c #E554C4",
";X c #EA55C6",
":X c #E65AC3",
">X c #EE5AC7",
",X c #E958C0",
"<X c #EF5BC8",
"1X c #E965C5",
"2X c #EC68C7",
"3X c #EF6ECC",
"4X c #EB65C8",
"5X c #F26BCD",
"6X c #F46ED1",
"7X c #F571D1",
/* pixels */
"                                                                                          ",
"                                                                                          ",
"                                                                                          ",
"                                                                                          ",
"                                                                                          ",
"                                                                                          ",
"                                                                                          ",
"                                                                                          ",
"                                                                                          ",
"                                                                                          ",
"                    OX$XOXoX                                                              ",
"                    OXOXOXOXXX^.                                                          ",
"                    OXoXc.c.XXoXXX+X                                                      ",
"                    OXXX%.m s. X*X5X3X                                                    ",
"                    oXXXf.f y N `.2X7X7X1X                                                ",
"                    oXXXf.x u y m /.}.5X6X4X                                              ",
"                    XX.Xg.v z l y t B _.1X5X,XL.                                          ",
"                    XX.Xj.v V V b v t n &.{.+XP.H.                                        ",
"                      ~.j.c V C y.y.` g ; m %.H.P.K.Z.                                    ",
"                      ~.j.v V C u.p.p.y.v ; - M f.H.K.J.                                  ",
"                      ~.j.v C r.u.p.p.p.i._ r & e #.Z.H.J.D.                              ",
"                      ~.j.` C u.u.p.p.p.p.` x i * - k f.J.J.D.                            ",
"                      #XL.$.r.u.u.u.p.p.e.c x s p = % 8 #.n.J.J.S.                        ",
"                      &X|.a.r.u.u.u.u.y.` x x d s p 2 * % ^ :.B.!.T.                      ",
"                      >X%Xx.y.u.u.u.y.e.c x x d s s s i * % 8 #.b.D.T.E.                  ",
"                      <X:Xz.y.u.u.u.e.` z x x d s s s a a 2 % 6 ( v.D.T.0.                ",
"                      >X:X(.y.u.u.e.e.c x x x d s s s a a a 5 q L -.B.B.O.E               ",
"                      ;X:X(.y.r.e.e.b z x x d s s j j ~ ' O.=.;.v.V.m.;.E G               ",
"                      ;X:X).e.r.e.e.c l x x d s j O.h.V.n.n.B.V.v.-.) J 3                 ",
"                      ;X:X).e.e.e.b z x x x d s h =.B.C.n.8.-.( J > + o                   ",
"                      ;X-X).` e.C c l x x x d p = w ;.B.;.0 + X                           ",
"                      =X-XA.` e.c z z ` ' j s s 2 % ^ b.b.+.O                             ",
"                      =X-XG.` b z z ` h.h.~ s s i * % *.W.F.+.                            ",
"                      =X=Xl.v c z ` d.B.B.O.a s s 2 # 9 F.'.w.U                           ",
"                      @X].l.x z c d.n.B.B.8.! a s a 1 $ @.R.Q.,.J                         ",
"                        [.k.x c d.n.V.-.8.v.| a a a i % 6 ,.Q.R.*.                        ",
"                        W.;._ t.V.V.| 7 ( v.8.! a a a 5 , 9 F.Q.8.E                       ",
"                        B.v.o.v.v.| > X J v.v.| a a a ~ q % @.S.N.} W                     ",
"                        B.m.m.v.| > .       m.o.! a ! ! ! 1 6 *.9.7.]                     ",
"                        M.M.v.) , .         m.v.| R ! ! ! K , 7 ..6.7.[                   ",
"                              6 .             N.8./ R ! ! ! 4 $ J 3.6.X.Q                 ",
"                                              Y.N.| R ! ! ! 5 : > { 6.m.X.                ",
"                                                Y.q./ R ! R 4 < o 7 1.9.m.X.              ",
"                                                Y.N.| D D D 4 3 : > { 5.9.}               ",
"                                                  U.q.P D 4 3 3 S P <.5.1.F               ",
"                                                  U.N.{ S 4 S F  .2.4.1.I Z               ",
"                                                    I.3.F F  .<.2.1.T H +                 ",
"                                                    6.5.<.<.<.<.Y A +                     ",
"                                                      4.4.<.Y A @ X                       ",
"                                                          Y > X                           ",
"                                                                                          ",
"                                                                                          ",
"                                                                                          ",
"                                                                                          ",
"                                                                                          ",
"                                                                                          ",
"                                                                                          ",
"                                                                                          ",
"                                                                                          "
};
