/* XPM */
static char *_38fa212f96b4f00e1967b257336ad28V6yXY3T3ymQ8JgVz[] = {
/* columns rows colors chars-per-pixel */
"32 32 7 1 ",
"  c None",
". c black",
"X c #861B64",
"o c #AE2383",
"O c #FF0FB3",
"+ c #D77BBA",
"@ c white",
/* pixels */
"                                ",
"                                ",
"               ..               ",
"              ....              ",
"             ..++..             ",
"             .++++.             ",
"            ..+OO+..            ",
"            .++OO++.            ",
"            .+OOOO+.            ",
"           ..+OooO+..           ",
"  ..........++OooO++..........  ",
"   ..++++++++OOooOO++++++++..   ",
"    .++OOOOOO@.XX@.OOOOOO++.    ",
"    ..++OOooo..XX..oooOO++..    ",
"     ..++OOOo..XX..oOOO++..     ",
"      ..+++Oo..XX..oO+++..      ",
"       ...+OoXXXXXXoO+...       ",
"         .+OoXX..XXoO+.         ",
"         .+OooooooooO+.         ",
"         .+OOOOOOOOOO+.         ",
"        ..+OO++++++OO+..        ",
"       ..++O++....++O++..       ",
"       .+++++..  ..+++++.       ",
"      ..+++...    ...+++.       ",
"      .+++..        ..++..      ",
"     ..++..          ..++..     ",
"    ......            ......    ",
"                                ",
"                                ",
"                                ",
"                                ",
"                                "
};
