/* XPM */
static char *ce0b2ada86064e5fee8cad84d3a4a6ebXdO4bYWK6yWZKwtl[] = {
/* columns rows colors chars-per-pixel */
"32 32 18 1 ",
"  c None",
". c black",
"X c #DF7126",
"o c #D77838",
"O c #E47C35",
"+ c #D78751",
"@ c #DD8950",
"# c #DD9D70",
"$ c #E49660",
"% c #D9A066",
"& c #A65DC3",
"* c #EEC39A",
"= c #B580C9",
"- c #BBA6C3",
"; c #C69CD7",
": c #CBDBFC",
"> c #F8CDEB",
", c white",
/* pixels */
"                                ",
"       ..................       ",
"      ..+X+X+X+X+X+X+X$X..      ",
"    ...+XOXOXOXOXOXoXoXX+...    ",
"   ..@$XO#*#*#*#*#*#*##OX+@..   ",
"  ..@XX+XO#*#*#*#*#*#*OX+XX@..  ",
" ..@X#*#+XX#*#*#*#*#*OX+#*#X@.. ",
" .@X#*#*#+XO#*#*#*#*OX+#*#*#X@. ",
" .XX*#*#*#+XO#*#*#*OX+#*#*#*XX. ",
" .@X#*#*#*#+XX#*#*XX+#*#*#*#X@. ",
" .XX*#*#*#*#+XO#*OX+#*#*#*#XXX. ",
" ..@XXXXX*#*#+XOOX+#*#XXXXXX@.. ",
"  ...@X@XXXXX@....@XXXXX@X@...  ",
"    ....@X@X@..,-..@X@X@....    ",
"       ....@..:>::..@....       ",
"          ...>:,>>,...          ",
"        ...=..-,:>..=...        ",
"      ...&==;..:,..&==&...      ",
"     ..;;;;;;;....;&;;;;&..     ",
"    ..&&=;=&==;;;&;==;&=&;.     ",
"   .....;;&&&&;;&&;;;;==.....   ",
"   .+*X....&;=;;=;;==....**X.   ",
"   .*X*%%*...;;==&&...*%X*%%.   ",
"   ...*X**%+........***%%X...   ",
"     .**%*XX*XX%***%XX++*X.     ",
"     ..*X**X***%*X*%%X***..     ",
"      ...*%%**XX*X*++**...      ",
"        ................        ",
"                                ",
"                                ",
"                                ",
"                                "
};
