/* XPM */
static char *_471508ea3af4e0eb75260a78439bce5HnD2wrj2X2kPR9Pf[] = {
/* columns rows colors chars-per-pixel */
"32 32 5 1 ",
"  c None",
". c black",
"X c #5B6EE1",
"o c #639BFF",
"O c white",
/* pixels */
"                                ",
"                                ",
"                                ",
"                                ",
"                                ",
"                                ",
"                                ",
"                                ",
"                                ",
"                                ",
"                ...             ",
"               ..X.             ",
"              ..XX.             ",
"     ..........XXX.             ",
"    ..XXXXXXXXXXXX.             ",
"   ..XXXXXXXXXXXXX......    ... ",
"....XXXXXXXXXXXXXXXXXXX.   ..X. ",
".XXXXX.OXXXXXXXXXXXXXXX.  ..XX. ",
".XXXXX..oXX.X.XXXXXXXXX. ..XXX. ",
"....XX..ooo.X.XXXXXXXXX...XXXX. ",
"   ..oooooooooooooooXXXXXXXX... ",
" ...ooooooooooooooooooXXXXXX.   ",
"..ooooooooooooooooooooooXXXX.   ",
"...............oooo.......XX... ",
"              .oooo.     .XXXX. ",
"              ..oo..     ..XXX. ",
"               ..o.       ..... ",
"                ...             ",
"                                ",
"                                ",
"                                ",
"                                "
};
