/* XPM */
static char *b278d05791a849408c249289773c5deap2Mq7Ahb7mBUl3gc[] = {
/* columns rows colors chars-per-pixel */
"32 32 8 1 ",
"  c None",
". c black",
"X c #E414A2",
"o c #E417A4",
"O c #F21CAE",
"+ c #D72CA1",
"@ c #D77BBA",
"# c white",
/* pixels */
"                                ",
"               .                ",
"            .......             ",
"           ..+++++..            ",
"          ..+++++++..           ",
"         ..++.....++..          ",
"        ..+++.++X.+++..         ",
"        .+++++++++++++.         ",
"        ...............         ",
"           .@@@@@@@.            ",
"           .@@...@@.            ",
"           .@@.o.@@.            ",
"           .@@...@@.            ",
"           .@@@@@@@.            ",
"     .......@@@@@@@.......      ",
"     .@@@@@@@@@@@@@@@@@@@.      ",
"     .@@@@@@@@@@@@@@@@@@@.      ",
"     .@@@@@@.......@@@@@@.      ",
"     .@@@@@..#####..@@@@@.      ",
"     .@@@@@.#######.@@@@@.      ",
"     ..@@@..#######..@@@..      ",
"      .@@@.##..#..##.@@@.       ",
"      .@@@.#.OO.OO.#.@@@.       ",
"      .@@@.#.OOOOO.#.@@@.       ",
"      .@@@.##..O..##.@@@.       ",
"      .@@@.####.####.@@@.       ",
"      .@@@.#########.@@@.       ",
"      .@@@.#########.@@@.       ",
"      ...................       ",
"                                ",
"                                ",
"                                "
};
