/* XPM */
static char *be4afd361fa24584ecdd42a2fc3d42abe7nVWrG3PsSncemm[] = {
/* columns rows colors chars-per-pixel */
"32 32 9 1 ",
"  c None",
". c black",
"X c #45283C",
"o c #FBF236",
"O c #F820B4",
"+ c #D77BBA",
"@ c #EEC39A",
"# c #BF83D7",
"$ c white",
/* pixels */
"          ............          ",
"         ..XXXXXXXXXX..         ",
"        ..XXXXXXXXX+XX..        ",
"        .XXXXXXXXX+o+XX.        ",
"       ..XXXXXXXXXX+XXX..       ",
"       .XXXXXXXX@@XXXXXX.       ",
"       .XXXXXXX@@@@XXXXX.       ",
"       .XXXX.$@@@.$@XXXX.       ",
"       .XXX@..@@@..@@XXX.       ",
"       ..XX+..@@@..+@XX..       ",
"        .X@++@@.@@++@@X.        ",
"        .X.@@@@@@@@@@.X..       ",
"       ..XX..........XXX.       ",
"      ..XXX ..@@@@..XXXX..      ",
"      .XXXX..@#@@#@..XXXX.      ",
"      .XXX..@@####@@..XXX.      ",
"      .XXX.@..@@@@..@.XXX.      ",
"      .XXX....+@@+....XXX.      ",
"      ..XXXX.OO++OO.XXXX..      ",
"       .XXXX.OO++OO..XXX.       ",
"       ..XXX.OOOOOOO.XX..       ",
"        .......OOOOO....        ",
"              .OOOOO.           ",
"       ...... ..OOOO.           ",
"        .+++.. .OOOO.           ",
"        ..++++..OOO..           ",
"         ..+++.OOO..            ",
"          .+++OOO..             ",
"        ...+++.OO.              ",
"      ...+++......              ",
"       .++++.                   ",
"       ......                   "
};
